<svg width="24" height="22" viewBox="0 0 24 22" fill="none" xmlns="http://www.w3.org/2000/svg">
<rect width="24" height="22" fill="#1E1E1E"/>
<g id="Home Screen new" clip-path="url(#clip0_0_1)">
<rect width="1440" height="2407" transform="translate(-729 -1083)" fill="#F2F2F2"/>
<g id="Group 1000004144">
<g id="Rectangle 6" filter="url(#filter0_d_0_1)">
<rect x="-585" y="-381" width="1152" height="1261" rx="36" fill="white"/>
</g>
<g id="Group 1000004220">
<g id="Group 1000004214">
</g>
</g>
<g id="Group 1000004226">
<g id="ri:hotel-line" clip-path="url(#clip1_0_1)">
<path id="Vector" d="M24 21.6H0V19.2H1.2V1.2C1.2 0.88174 1.32643 0.576515 1.55147 0.351472C1.77652 0.126428 2.08174 0 2.4 0H19.2C19.5183 0 19.8235 0.126428 20.0485 0.351472C20.2736 0.576515 20.4 0.88174 20.4 1.2V7.2H22.8V19.2H24V21.6ZM18 19.2H20.4V9.6H13.2V19.2H15.6V12H18V19.2ZM18 7.2V2.4H3.6V19.2H10.8V7.2H18ZM6 9.6H8.4V12H6V9.6ZM6 14.4H8.4V16.8H6V14.4ZM6 4.8H8.4V7.2H6V4.8Z" fill="#018AD3"/>
</g>
</g>
</g>
</g>
<defs>
<filter id="filter0_d_0_1" x="-589" y="-381" width="1160" height="1269" filterUnits="userSpaceOnUse" color-interpolation-filters="sRGB">
<feFlood flood-opacity="0" result="BackgroundImageFix"/>
<feColorMatrix in="SourceAlpha" type="matrix" values="0 0 0 0 0 0 0 0 0 0 0 0 0 0 0 0 0 0 127 0" result="hardAlpha"/>
<feOffset dy="4"/>
<feGaussianBlur stdDeviation="2"/>
<feComposite in2="hardAlpha" operator="out"/>
<feColorMatrix type="matrix" values="0 0 0 0 0 0 0 0 0 0 0 0 0 0 0 0 0 0 0.05 0"/>
<feBlend mode="normal" in2="BackgroundImageFix" result="effect1_dropShadow_0_1"/>
<feBlend mode="normal" in="SourceGraphic" in2="effect1_dropShadow_0_1" result="shape"/>
</filter>
<clipPath id="clip0_0_1">
<rect width="1440" height="2407" fill="white" transform="translate(-729 -1083)"/>
</clipPath>
<clipPath id="clip1_0_1">
<rect width="24" height="21.6" fill="white"/>
</clipPath>
</defs>
</svg>
