<svg width="18" height="18" viewBox="0 0 18 18" fill="none" xmlns="http://www.w3.org/2000/svg">
<g id="fluent:shifts-activity-24-filled" clip-path="url(#clip0_61_15524)">
<path id="Vector" d="M8.199 1.8441C8.43626 1.81785 8.65338 1.69841 8.80258 1.51208C8.95179 1.32574 9.02086 1.08777 8.9946 0.850503C8.96834 0.61324 8.84891 0.396125 8.66257 0.246921C8.47624 0.0977175 8.23826 0.0286463 8.001 0.0549028C3.4992 0.552603 0 4.3668 0 9C0 13.9707 4.0293 18 9 18C13.6314 18 17.4447 14.5017 17.9451 10.0026C17.9714 9.76534 17.9023 9.52737 17.7531 9.34103C17.6039 9.15469 17.3868 9.03526 17.1495 9.009C16.9122 8.98275 16.6743 9.05182 16.4879 9.20102C16.3016 9.35023 16.1822 9.56734 16.1559 9.8046C15.9486 11.6317 15.0502 13.3103 13.6449 14.4962C12.2396 15.6821 10.4339 16.2854 8.59794 16.1825C6.76201 16.0796 5.035 15.2783 3.77101 13.9428C2.50702 12.6073 1.80182 10.8388 1.8 9C1.80005 7.22909 2.45267 5.5203 3.63313 4.20021C4.81359 2.88012 6.4391 2.04131 8.199 1.8441ZM11.4903 0.351903C11.2628 0.294513 11.022 0.328204 10.819 0.445799C10.616 0.563395 10.4669 0.7556 10.4036 0.981471C10.3402 1.20734 10.3675 1.44903 10.4798 1.65504C10.592 1.86105 10.7802 2.01511 11.0043 2.0844C11.2626 2.1573 11.5164 2.2446 11.7621 2.3454C11.9831 2.43575 12.231 2.43459 12.4512 2.34218C12.6714 2.24977 12.8458 2.07368 12.9362 1.85265C13.0265 1.63162 13.0253 1.38375 12.9329 1.16358C12.8405 0.943399 12.6644 0.768949 12.4434 0.678603C12.1322 0.551664 11.814 0.442587 11.4903 0.351903ZM13.8141 2.4219C13.8941 2.33485 13.9904 2.2644 14.0976 2.21458C14.2047 2.16475 14.3207 2.13652 14.4388 2.13151C14.5569 2.12649 14.6748 2.14479 14.7858 2.18535C14.8968 2.22591 14.9988 2.28794 15.0858 2.3679C15.2766 2.5425 15.4593 2.7252 15.6339 2.9151C15.7953 3.09102 15.8801 3.32383 15.8698 3.56232C15.8595 3.80081 15.7549 4.02544 15.579 4.1868C15.4031 4.34816 15.1703 4.43303 14.9318 4.42273C14.6933 4.41243 14.4687 4.30782 14.3073 4.1319C14.1679 3.97986 14.0219 3.83392 13.8699 3.6945C13.7827 3.61467 13.7121 3.51845 13.6621 3.41133C13.6122 3.30422 13.5838 3.1883 13.5786 3.07021C13.5734 2.95212 13.5915 2.83416 13.6319 2.72308C13.6724 2.612 13.7343 2.50906 13.8141 2.4219ZM8.1 3.6C8.3387 3.6 8.56761 3.69482 8.7364 3.86361C8.90518 4.03239 9 4.26131 9 4.5V9H11.7C11.9387 9 12.1676 9.09482 12.3364 9.26361C12.5052 9.43239 12.6 9.66131 12.6 9.9C12.6 10.1387 12.5052 10.3676 12.3364 10.5364C12.1676 10.7052 11.9387 10.8 11.7 10.8H8.1C7.86131 10.8 7.63239 10.7052 7.4636 10.5364C7.29482 10.3676 7.2 10.1387 7.2 9.9V4.5C7.2 4.26131 7.29482 4.03239 7.4636 3.86361C7.63239 3.69482 7.86131 3.6 8.1 3.6ZM16.146 5.0607C16.3669 4.97038 16.6147 4.9715 16.8347 5.06382C17.0548 5.15615 17.2292 5.33211 17.3196 5.553C17.4472 5.86539 17.5569 6.18481 17.6481 6.5097C17.6836 6.62453 17.6957 6.7453 17.6838 6.86489C17.6719 6.98448 17.6361 7.10047 17.5786 7.20601C17.5211 7.31156 17.4431 7.40452 17.3491 7.47941C17.2551 7.55431 17.1471 7.60962 17.0313 7.64208C16.9156 7.67454 16.7946 7.68349 16.6753 7.66842C16.5561 7.65334 16.4411 7.61453 16.3371 7.55428C16.2331 7.49404 16.1422 7.41357 16.0698 7.31764C15.9974 7.2217 15.945 7.11224 15.9156 6.9957C15.8428 6.73716 15.7553 6.48295 15.6537 6.2343C15.5633 6.0135 15.5643 5.76585 15.6565 5.54578C15.7486 5.32572 15.9244 5.15124 16.1451 5.0607H16.146Z" fill="black"/>
</g>
<defs>
<clipPath id="clip0_61_15524">
<rect width="18" height="18" fill="white"/>
</clipPath>
</defs>
</svg>
