<svg width="24" height="24" viewBox="0 0 24 24" fill="none" xmlns="http://www.w3.org/2000/svg">
<path d="M10.932 2.4588C11.2483 2.42379 11.5378 2.26455 11.7368 2.0161C11.9357 1.76765 12.0278 1.45035 11.9928 1.134C11.9578 0.817653 11.7985 0.528167 11.5501 0.329229C11.3016 0.13029 10.9844 0.0381951 10.668 0.0732037C4.6656 0.736804 0 5.8224 0 12C0 18.6276 5.3724 24 12 24C18.1752 24 23.2596 19.3356 23.9268 13.3368C23.9618 13.0205 23.8697 12.7032 23.6708 12.4547C23.4718 12.2063 23.1823 12.047 22.866 12.012C22.5496 11.977 22.2323 12.0691 21.9839 12.268C21.7355 12.467 21.5762 12.7565 21.5412 13.0728C21.2648 15.5089 20.067 17.747 18.1932 19.3282C16.3195 20.9094 13.9118 21.7139 11.4639 21.5767C9.01602 21.4395 6.71334 20.371 5.02801 18.5903C3.34269 16.8097 2.40242 14.4518 2.4 12C2.40007 9.63879 3.27023 7.3604 4.84418 5.60028C6.41812 3.84016 8.58547 2.72175 10.932 2.4588ZM15.3204 0.469204C15.0171 0.392684 14.6959 0.437605 14.4253 0.594399C14.1546 0.751193 13.9559 1.00747 13.8714 1.30863C13.7869 1.60979 13.8234 1.93204 13.973 2.20672C14.1226 2.48141 14.3736 2.68682 14.6724 2.7792C15.0168 2.8764 15.3552 2.9928 15.6828 3.1272C15.9775 3.24766 16.308 3.24612 16.6016 3.12291C16.8951 2.9997 17.1277 2.76491 17.2482 2.4702C17.3687 2.17549 17.3671 1.845 17.2439 1.55143C17.1207 1.25787 16.8859 1.02526 16.5912 0.904804C16.1762 0.735552 15.7519 0.590116 15.3204 0.469204ZM18.4188 3.2292C18.5254 3.11314 18.6538 3.0192 18.7967 2.95277C18.9396 2.88633 19.0942 2.8487 19.2517 2.84201C19.4091 2.83533 19.5664 2.85972 19.7144 2.9138C19.8624 2.96788 19.9983 3.05059 20.1144 3.1572C20.3688 3.39 20.6124 3.6336 20.8452 3.8868C21.0603 4.12136 21.1735 4.43178 21.1598 4.74976C21.146 5.06775 21.0066 5.36726 20.772 5.5824C20.5374 5.79755 20.227 5.9107 19.909 5.89697C19.5911 5.88325 19.2915 5.74376 19.0764 5.5092C18.8905 5.30648 18.6959 5.11189 18.4932 4.926C18.377 4.81956 18.2828 4.69127 18.2162 4.54845C18.1495 4.40562 18.1117 4.25107 18.1048 4.09361C18.0979 3.93616 18.122 3.77888 18.1759 3.63077C18.2298 3.48266 18.3123 3.34542 18.4188 3.2292ZM10.8 4.8C11.1183 4.8 11.4235 4.92643 11.6485 5.15148C11.8736 5.37652 12 5.68174 12 6V12H15.6C15.9183 12 16.2235 12.1264 16.4485 12.3515C16.6736 12.5765 16.8 12.8817 16.8 13.2C16.8 13.5183 16.6736 13.8235 16.4485 14.0485C16.2235 14.2736 15.9183 14.4 15.6 14.4H10.8C10.4817 14.4 10.1765 14.2736 9.95147 14.0485C9.72643 13.8235 9.6 13.5183 9.6 13.2V6C9.6 5.68174 9.72643 5.37652 9.95147 5.15148C10.1765 4.92643 10.4817 4.8 10.8 4.8ZM21.528 6.7476C21.8226 6.62717 22.1529 6.62867 22.4463 6.75177C22.7398 6.87486 22.9723 7.10947 23.0928 7.404C23.2629 7.82053 23.4092 8.24642 23.5308 8.6796C23.5781 8.8327 23.5943 8.99373 23.5784 9.15318C23.5625 9.31264 23.5148 9.46729 23.4382 9.60802C23.3615 9.74874 23.2575 9.87269 23.1321 9.97255C23.0068 10.0724 22.8627 10.1462 22.7084 10.1894C22.5542 10.2327 22.3928 10.2447 22.2338 10.2246C22.0748 10.2044 21.9215 10.1527 21.7828 10.0724C21.6441 9.99205 21.523 9.88476 21.4265 9.75685C21.3299 9.62893 21.26 9.48298 21.2208 9.3276C21.1237 8.98288 21.0071 8.64393 20.8716 8.3124C20.7511 8.018 20.7524 7.6878 20.8753 7.39438C20.9981 7.10095 21.2325 6.86832 21.5268 6.7476H21.528Z" fill="#018AD3"/>
</svg>
