
<svg width="36" height="36" viewBox="0 0 36 36" fill="none" xmlns="http://www.w3.org/2000/svg">
<g clip-path="url(#clip0_5_695)">
<path d="M18.0001 35.92C27.897 35.92 35.9201 27.8969 35.9201 18C35.9201 8.10304 27.897 0.0799866 18.0001 0.0799866C8.10314 0.0799866 0.0800781 8.10304 0.0800781 18C0.0800781 27.8969 8.10314 35.92 18.0001 35.92Z" fill="#265FB5"/>
<path d="M18 32.21C25.848 32.21 32.21 25.8479 32.21 18C32.21 10.152 25.848 3.78998 18 3.78998C10.1521 3.78998 3.79004 10.152 3.79004 18C3.79004 25.8479 10.1521 32.21 18 32.21Z" fill="#3082E3"/>
<path d="M18.0002 28.01C23.5286 28.01 28.0102 23.5284 28.0102 18C28.0102 12.4716 23.5286 7.98999 18.0002 7.98999C12.4719 7.98999 7.99023 12.4716 7.99023 18C7.99023 23.5284 12.4719 28.01 18.0002 28.01Z" fill="#58A3D9"/>
<path d="M24.5557 9.97396C24.4609 9.62256 24.8963 9.37567 25.1492 9.6374C25.7552 10.2644 26.654 10.5127 27.496 10.2855C27.8473 10.1908 28.0942 10.6261 27.8325 10.879C27.2055 11.4851 26.9573 12.3839 27.1843 13.2258C27.2791 13.5771 26.8438 13.824 26.5909 13.5624C25.9849 12.9353 25.086 12.6871 24.2441 12.9142C23.8927 13.009 23.6458 12.5736 23.9076 12.3207C24.5346 11.7147 24.7829 10.8159 24.5557 9.97396Z" fill="white"/>
<path d="M26.5942 17.0467C26.5653 16.921 26.5056 16.8046 26.4206 16.7077C26.3355 16.6108 26.2278 16.5365 26.1071 16.4914L19.6566 15.2257L21.9176 7.24758C21.9502 7.08217 21.9291 6.91067 21.8572 6.75817C21.7853 6.60566 21.6665 6.48019 21.5181 6.40014C21.3682 6.32043 21.1962 6.2925 21.0288 6.32069C20.8614 6.34888 20.708 6.4316 20.5925 6.55598L9.68037 18.2447C9.59091 18.3375 9.52623 18.4512 9.49221 18.5754C9.45812 18.6996 9.45588 18.8305 9.48549 18.9558C9.51601 19.0807 9.57621 19.1964 9.66105 19.2931C9.74582 19.3898 9.85271 19.4645 9.97262 19.511L16.5016 20.6983L14.1621 28.7549C14.1294 28.9203 14.1506 29.0918 14.2225 29.2443C14.2943 29.3968 14.4132 29.5223 14.5616 29.6023C14.6735 29.6588 14.7968 29.6887 14.9221 29.69C15.0279 29.6904 15.1328 29.6691 15.23 29.6271C15.3273 29.5853 15.4148 29.5237 15.4871 29.4465L26.3993 17.7577C26.4888 17.665 26.5534 17.5513 26.5875 17.427C26.6216 17.3028 26.6238 17.172 26.5942 17.0467Z" fill="white"/>
</g>
<defs>
<clipPath id="clip0_5_695">
<rect width="36" height="36" fill="white"/>
</clipPath>
</defs>
</svg>
