<svg width="24" height="24" viewBox="0 0 24 24" fill="none" xmlns="http://www.w3.org/2000/svg">
<path d="M10.7998 4.79999C10.6407 4.79999 10.4881 4.86321 10.3755 4.97573C10.263 5.08825 10.1998 5.24086 10.1998 5.39999C10.1998 5.55912 10.263 5.71174 10.3755 5.82426C10.4881 5.93678 10.6407 5.99999 10.7998 5.99999H13.1998C13.3589 5.99999 13.5115 5.93678 13.6241 5.82426C13.7366 5.71174 13.7998 5.55912 13.7998 5.39999C13.7998 5.24086 13.7366 5.08825 13.6241 4.97573C13.5115 4.86321 13.3589 4.79999 13.1998 4.79999H10.7998ZM9.5998 15.6C9.5998 15.9183 9.47338 16.2235 9.24833 16.4485C9.02329 16.6736 8.71806 16.8 8.3998 16.8C8.08154 16.8 7.77632 16.6736 7.55128 16.4485C7.32623 16.2235 7.1998 15.9183 7.1998 15.6C7.1998 15.2817 7.32623 14.9765 7.55128 14.7515C7.77632 14.5264 8.08154 14.4 8.3998 14.4C8.71806 14.4 9.02329 14.5264 9.24833 14.7515C9.47338 14.9765 9.5998 15.2817 9.5998 15.6ZM15.5998 16.8C15.9181 16.8 16.2233 16.6736 16.4483 16.4485C16.6734 16.2235 16.7998 15.9183 16.7998 15.6C16.7998 15.2817 16.6734 14.9765 16.4483 14.7515C16.2233 14.5264 15.9181 14.4 15.5998 14.4C15.2815 14.4 14.9763 14.5264 14.7513 14.7515C14.5262 14.9765 14.3998 15.2817 14.3998 15.6C14.3998 15.9183 14.5262 16.2235 14.7513 16.4485C14.9763 16.6736 15.2815 16.8 15.5998 16.8ZM3.5998 6.59999C3.5998 5.48608 4.0423 4.4178 4.82996 3.63015C5.61761 2.84249 6.68589 2.39999 7.7998 2.39999H16.1998C17.3137 2.39999 18.382 2.84249 19.1697 3.63015C19.9573 4.4178 20.3998 5.48608 20.3998 6.59999V9.59999H21.5998C21.7589 9.59999 21.9115 9.66321 22.0241 9.77573C22.1366 9.88825 22.1998 10.0409 22.1998 10.2C22.1998 10.3591 22.1366 10.5117 22.0241 10.6243C21.9115 10.7368 21.7589 10.8 21.5998 10.8H20.3998V19.8C20.3998 20.2774 20.2102 20.7352 19.8726 21.0728C19.535 21.4104 19.0772 21.6 18.5998 21.6H17.3998C16.9224 21.6 16.4646 21.4104 16.127 21.0728C15.7894 20.7352 15.5998 20.2774 15.5998 19.8V19.2H8.3998V19.8C8.3998 20.2774 8.21016 20.7352 7.8726 21.0728C7.53503 21.4104 7.07719 21.6 6.5998 21.6H5.3998C4.92241 21.6 4.46458 21.4104 4.12701 21.0728C3.78945 20.7352 3.5998 20.2774 3.5998 19.8V10.8H2.3998C2.24067 10.8 2.08806 10.7368 1.97554 10.6243C1.86302 10.5117 1.7998 10.3591 1.7998 10.2C1.7998 10.0409 1.86302 9.88825 1.97554 9.77573C2.08806 9.66321 2.24067 9.59999 2.3998 9.59999H3.5998V6.59999ZM19.1998 6.59999C19.1998 5.80434 18.8837 5.04128 18.3211 4.47867C17.7585 3.91606 16.9955 3.59999 16.1998 3.59999H7.7998C7.00415 3.59999 6.24109 3.91606 5.67848 4.47867C5.11588 5.04128 4.7998 5.80434 4.7998 6.59999V12H19.1998V6.59999ZM16.7998 19.2V19.8C16.7998 19.9591 16.863 20.1117 16.9755 20.2243C17.0881 20.3368 17.2407 20.4 17.3998 20.4H18.5998C18.7589 20.4 18.9115 20.3368 19.0241 20.2243C19.1366 20.1117 19.1998 19.9591 19.1998 19.8V19.2H16.7998ZM4.7998 19.2V19.8C4.7998 19.9591 4.86302 20.1117 4.97554 20.2243C5.08806 20.3368 5.24067 20.4 5.3998 20.4H6.5998C6.75893 20.4 6.91155 20.3368 7.02407 20.2243C7.13659 20.1117 7.1998 19.9591 7.1998 19.8V19.2H4.7998ZM4.7998 18H19.1998V13.2H4.7998V18Z" fill="#018AD3"/>
</svg>
