<svg width="24" height="24" viewBox="0 0 24 24" fill="none" xmlns="http://www.w3.org/2000/svg">
<path d="M16.6319 3.60001C17.3256 3.59987 17.9979 3.84014 18.5344 4.27991C19.0708 4.71968 19.4383 5.33177 19.5743 6.01201L19.8107 7.20001H20.6999C20.9174 7.20002 21.1275 7.27878 21.2914 7.42173C21.4553 7.56468 21.5619 7.76214 21.5915 7.97761L21.5999 8.10001C21.5999 8.31749 21.5211 8.52762 21.3782 8.69152C21.2352 8.85543 21.0378 8.96203 20.8223 8.99161L20.6999 9.00001H20.1707L20.3051 9.67201C20.6788 9.78127 21.0069 10.0087 21.2404 10.3203C21.4738 10.6319 21.6 11.0107 21.5999 11.4V17.4C21.5999 17.8774 21.4103 18.3352 21.0727 18.6728C20.7351 19.0104 20.2773 19.2 19.7999 19.2H19.1999V20.4C19.1999 20.7183 19.0735 21.0235 18.8484 21.2485C18.6234 21.4736 18.3182 21.6 17.9999 21.6C17.6816 21.6 17.3764 21.4736 17.1514 21.2485C16.9263 21.0235 16.7999 20.7183 16.7999 20.4V19.2H7.1999V20.4C7.1999 20.7183 7.07347 21.0235 6.84843 21.2485C6.62339 21.4736 6.31816 21.6 5.9999 21.6C5.68164 21.6 5.37642 21.4736 5.15137 21.2485C4.92633 21.0235 4.7999 20.7183 4.7999 20.4V19.2H4.1999C3.72251 19.2 3.26468 19.0104 2.92711 18.6728C2.58954 18.3352 2.3999 17.8774 2.3999 17.4V11.4C2.39983 11.0107 2.52597 10.6319 2.75942 10.3203C2.99287 10.0087 3.32104 9.78127 3.6947 9.67201L3.8279 9.00001H3.2999C3.06121 9.00001 2.83229 8.90519 2.66351 8.7364C2.49472 8.56762 2.3999 8.3387 2.3999 8.10001C2.3999 7.86131 2.49472 7.63239 2.66351 7.46361C2.83229 7.29483 3.06121 7.20001 3.2999 7.20001H4.1879L4.4255 6.01201C4.56147 5.33177 4.92896 4.71968 5.46544 4.27991C6.00191 3.84014 6.67421 3.59987 7.3679 3.60001H16.6319ZM19.7999 10.8H4.1999C4.04077 10.8 3.88816 10.8632 3.77564 10.9757C3.66312 11.0883 3.5999 11.2409 3.5999 11.4V17.4C3.5999 17.5591 3.66312 17.7117 3.77564 17.8243C3.88816 17.9368 4.04077 18 4.1999 18H19.7999C19.959 18 20.1116 17.9368 20.2242 17.8243C20.3367 17.7117 20.3999 17.5591 20.3999 17.4V11.4C20.3999 11.2409 20.3367 11.0883 20.2242 10.9757C20.1116 10.8632 19.959 10.8 19.7999 10.8ZM7.1999 13.2C7.51816 13.2 7.82339 13.3264 8.04843 13.5515C8.27347 13.7765 8.3999 14.0817 8.3999 14.4C8.3999 14.7183 8.27347 15.0235 8.04843 15.2485C7.82339 15.4736 7.51816 15.6 7.1999 15.6C6.88164 15.6 6.57642 15.4736 6.35137 15.2485C6.12633 15.0235 5.9999 14.7183 5.9999 14.4C5.9999 14.0817 6.12633 13.7765 6.35137 13.5515C6.57642 13.3264 6.88164 13.2 7.1999 13.2ZM16.7999 13.2C17.1182 13.2 17.4234 13.3264 17.6484 13.5515C17.8735 13.7765 17.9999 14.0817 17.9999 14.4C17.9999 14.7183 17.8735 15.0235 17.6484 15.2485C17.4234 15.4736 17.1182 15.6 16.7999 15.6C16.4816 15.6 16.1764 15.4736 15.9514 15.2485C15.7263 15.0235 15.5999 14.7183 15.5999 14.4C15.5999 14.0817 15.7263 13.7765 15.9514 13.5515C16.1764 13.3264 16.4816 13.2 16.7999 13.2ZM16.6319 4.80001H7.3679C6.95173 4.79998 6.54841 4.94416 6.22657 5.20802C5.90473 5.47188 5.68427 5.83911 5.6027 6.24721L4.9307 9.60001H19.0679L18.3971 6.24721C18.3156 5.83931 18.0953 5.47224 17.7737 5.2084C17.4521 4.94457 17.0491 4.80026 16.6331 4.80001H16.6319Z" fill="#018AD3"/>
</svg>
