<svg width="24" height="27" viewBox="0 0 24 27" fill="none" xmlns="http://www.w3.org/2000/svg">
<path d="M9 22.5H10.5V16.5C11.125 16.5 11.6565 16.281 12.0945 15.843C12.5325 15.405 12.751 14.874 12.75 14.25V9.75H11.25V14.25H10.5V9.75H9V14.25H8.25V9.75H6.75V14.25C6.75 14.875 6.969 15.4065 7.407 15.8445C7.845 16.2825 8.376 16.501 9 16.5V22.5ZM15 22.5H16.5V9.75C15.675 9.75 14.9685 10.044 14.3805 10.632C13.7925 11.22 13.499 11.926 13.5 12.75V17.25H15V22.5ZM0 27V9L12 0L24 9V27H0ZM3 24H21V10.5L12 3.75L3 10.5V24Z" fill="#018AD3"/>
</svg>
