<svg width="229" height="42" viewBox="0 0 229 42" fill="none" xmlns="http://www.w3.org/2000/svg">
<path d="M58.643 32V15.477H52.26V13.28H67.34V15.477H60.957V32H58.643ZM68.1149 32V17.96H70.1819V21.353L69.8439 20.911C70.0086 20.4777 70.2209 20.079 70.4809 19.715C70.7496 19.351 71.0486 19.052 71.3779 18.818C71.7419 18.5233 72.1536 18.298 72.6129 18.142C73.0723 17.986 73.5403 17.895 74.0169 17.869C74.4936 17.8343 74.9399 17.8647 75.3559 17.96V20.131C74.8706 20.001 74.3376 19.9663 73.7569 20.027C73.1763 20.0877 72.6389 20.3 72.1449 20.664C71.6943 20.9847 71.3433 21.3747 71.0919 21.834C70.8493 22.2933 70.6803 22.7917 70.5849 23.329C70.4896 23.8577 70.4419 24.3993 70.4419 24.954V32H68.1149ZM78.0741 15.477V13.085H80.3881V15.477H78.0741ZM78.0741 32V17.96H80.3881V32H78.0741ZM90.7368 32.39C89.4194 32.39 88.3101 32.065 87.4088 31.415C86.5074 30.7563 85.8228 29.868 85.3548 28.75C84.8954 27.6233 84.6658 26.3623 84.6658 24.967C84.6658 23.5543 84.8954 22.289 85.3548 21.171C85.8228 20.053 86.5074 19.1733 87.4088 18.532C88.3188 17.8907 89.4324 17.57 90.7498 17.57C92.0498 17.57 93.1678 17.895 94.1038 18.545C95.0484 19.1863 95.7721 20.066 96.2748 21.184C96.7774 22.302 97.0288 23.563 97.0288 24.967C97.0288 26.371 96.7774 27.632 96.2748 28.75C95.7721 29.868 95.0484 30.7563 94.1038 31.415C93.1678 32.065 92.0454 32.39 90.7368 32.39ZM84.2758 38.24V17.96H86.3428V28.295H86.6028V38.24H84.2758ZM90.4508 30.271C91.3781 30.271 92.1451 30.037 92.7518 29.569C93.3584 29.101 93.8134 28.4683 94.1168 27.671C94.4201 26.865 94.5718 25.9637 94.5718 24.967C94.5718 23.979 94.4201 23.0863 94.1168 22.289C93.8221 21.4917 93.3628 20.859 92.7388 20.391C92.1234 19.923 91.3391 19.689 90.3858 19.689C89.4758 19.689 88.7218 19.9143 88.1238 20.365C87.5258 20.807 87.0794 21.4267 86.7848 22.224C86.4901 23.0127 86.3428 23.927 86.3428 24.967C86.3428 25.9897 86.4858 26.904 86.7718 27.71C87.0664 28.5073 87.5171 29.1357 88.1238 29.595C88.7304 30.0457 89.5061 30.271 90.4508 30.271ZM100.139 32V13.28H102.453V32H100.139ZM114.192 32C113.36 32.1647 112.537 32.2297 111.722 32.195C110.916 32.169 110.197 32.0087 109.564 31.714C108.932 31.4107 108.451 30.9427 108.121 30.31C107.844 29.7553 107.692 29.1963 107.666 28.633C107.649 28.061 107.64 27.4153 107.64 26.696V14.06H109.954V26.592C109.954 27.164 109.959 27.6537 109.967 28.061C109.985 28.4683 110.076 28.8193 110.24 29.114C110.552 29.6687 111.046 29.9937 111.722 30.089C112.407 30.1843 113.23 30.1583 114.192 30.011V32ZM104.793 19.871V17.96H114.192V19.871H104.793ZM117.303 15.477V13.085H119.617V15.477H117.303ZM117.303 32V17.96H119.617V32H117.303ZM133.514 32V24.967C133.514 24.2997 133.454 23.6583 133.332 23.043C133.22 22.4277 133.016 21.8773 132.721 21.392C132.435 20.898 132.045 20.508 131.551 20.222C131.066 19.936 130.451 19.793 129.705 19.793C129.125 19.793 128.596 19.8927 128.119 20.092C127.651 20.2827 127.248 20.5773 126.91 20.976C126.572 21.3747 126.308 21.8773 126.117 22.484C125.935 23.082 125.844 23.7883 125.844 24.603L124.323 24.135C124.323 22.7743 124.566 21.6087 125.051 20.638C125.545 19.6587 126.234 18.909 127.118 18.389C128.011 17.8603 129.06 17.596 130.264 17.596C131.174 17.596 131.95 17.739 132.591 18.025C133.233 18.311 133.766 18.6923 134.19 19.169C134.615 19.637 134.949 20.1657 135.191 20.755C135.434 21.3357 135.603 21.9293 135.698 22.536C135.802 23.134 135.854 23.7017 135.854 24.239V32H133.514ZM123.504 32V17.96H125.584V21.717H125.844V32H123.504ZM145.191 32.39C143.813 32.39 142.608 32.0867 141.577 31.48C140.554 30.8647 139.757 30.011 139.185 28.919C138.613 27.8183 138.327 26.5357 138.327 25.071C138.327 23.537 138.609 22.211 139.172 21.093C139.735 19.9663 140.52 19.0997 141.525 18.493C142.539 17.8777 143.726 17.57 145.087 17.57C146.5 17.57 147.7 17.895 148.688 18.545C149.685 19.195 150.43 20.1223 150.924 21.327C151.427 22.5317 151.643 23.966 151.574 25.63H149.234V24.798C149.208 23.0733 148.857 21.7863 148.181 20.937C147.505 20.079 146.5 19.65 145.165 19.65C143.735 19.65 142.647 20.1093 141.902 21.028C141.157 21.9467 140.784 23.264 140.784 24.98C140.784 26.6353 141.157 27.918 141.902 28.828C142.647 29.738 143.709 30.193 145.087 30.193C146.014 30.193 146.82 29.9807 147.505 29.556C148.19 29.1313 148.727 28.5203 149.117 27.723L151.34 28.49C150.794 29.7293 149.971 30.6913 148.87 31.376C147.778 32.052 146.552 32.39 145.191 32.39ZM140.004 25.63V23.771H150.378V25.63H140.004ZM154.468 32V17.96H156.535V21.353L156.197 20.911C156.362 20.4777 156.574 20.079 156.834 19.715C157.103 19.351 157.402 19.052 157.731 18.818C158.095 18.5233 158.507 18.298 158.966 18.142C159.426 17.986 159.894 17.895 160.37 17.869C160.847 17.8343 161.293 17.8647 161.709 17.96V20.131C161.224 20.001 160.691 19.9663 160.11 20.027C159.53 20.0877 158.992 20.3 158.498 20.664C158.048 20.9847 157.697 21.3747 157.445 21.834C157.203 22.2933 157.034 22.7917 156.938 23.329C156.843 23.8577 156.795 24.3993 156.795 24.954V32H154.468ZM167.702 32.39C166.653 32.39 165.773 32.1993 165.063 31.818C164.361 31.428 163.828 30.9167 163.464 30.284C163.108 29.6513 162.931 28.958 162.931 28.204C162.931 27.4673 163.069 26.8303 163.347 26.293C163.633 25.747 164.031 25.2963 164.543 24.941C165.054 24.577 165.665 24.291 166.376 24.083C167.043 23.901 167.788 23.745 168.612 23.615C169.444 23.4763 170.284 23.3507 171.134 23.238C171.983 23.1253 172.776 23.017 173.513 22.913L172.681 23.394C172.707 22.146 172.455 21.223 171.927 20.625C171.407 20.027 170.505 19.728 169.223 19.728C168.373 19.728 167.628 19.923 166.987 20.313C166.354 20.6943 165.908 21.3183 165.648 22.185L163.451 21.522C163.789 20.2913 164.443 19.325 165.414 18.623C166.384 17.921 167.663 17.57 169.249 17.57C170.523 17.57 171.615 17.7997 172.525 18.259C173.443 18.7097 174.102 19.3943 174.501 20.313C174.7 20.7463 174.826 21.2187 174.878 21.73C174.93 22.2327 174.956 22.7613 174.956 23.316V32H172.902V28.633L173.383 28.945C172.854 30.0803 172.113 30.9383 171.16 31.519C170.215 32.0997 169.062 32.39 167.702 32.39ZM168.053 30.453C168.885 30.453 169.604 30.3057 170.211 30.011C170.826 29.7077 171.32 29.3133 171.693 28.828C172.065 28.334 172.308 27.7967 172.421 27.216C172.551 26.7827 172.62 26.3017 172.629 25.773C172.646 25.2357 172.655 24.824 172.655 24.538L173.461 24.889C172.707 24.993 171.966 25.0927 171.238 25.188C170.51 25.2833 169.821 25.3873 169.171 25.5C168.521 25.604 167.936 25.7297 167.416 25.877C167.034 25.9983 166.675 26.1543 166.337 26.345C166.007 26.5357 165.739 26.7827 165.531 27.086C165.331 27.3807 165.232 27.749 165.232 28.191C165.232 28.5723 165.327 28.9363 165.518 29.283C165.717 29.6297 166.02 29.9113 166.428 30.128C166.844 30.3447 167.385 30.453 168.053 30.453ZM178.336 32V17.96H180.403V21.353L180.065 20.911C180.229 20.4777 180.442 20.079 180.702 19.715C180.97 19.351 181.269 19.052 181.599 18.818C181.963 18.5233 182.374 18.298 182.834 18.142C183.293 17.986 183.761 17.895 184.238 17.869C184.714 17.8343 185.161 17.8647 185.577 17.96V20.131C185.091 20.001 184.558 19.9663 183.978 20.027C183.397 20.0877 182.86 20.3 182.366 20.664C181.915 20.9847 181.564 21.3747 181.313 21.834C181.07 22.2933 180.901 22.7917 180.806 23.329C180.71 23.8577 180.663 24.3993 180.663 24.954V32H178.336ZM189.731 38.24L192.448 30.856L192.487 33.04L186.351 17.96H188.782L193.592 30.089H192.76L197.271 17.96H199.624L191.98 38.24H189.731ZM200.105 32V29.452H202.653V32H200.105ZM205.397 32L211.663 13.28H214.887L221.153 32H218.748L212.885 14.632H213.613L207.802 32H205.397ZM208.413 27.619V25.448H218.137V27.619H208.413ZM223.74 15.477V13.085H226.054V15.477H223.74ZM223.74 32V17.96H226.054V32H223.74Z" fill="#26A2E9"/>
<g clip-path="url(#clip0_38_2769)">
<path d="M26.3985 11.0536C26.4882 11.0536 26.4882 11.0536 26.5798 11.0535C27.5809 11.0549 28.5492 11.1159 29.5311 11.3202C29.6316 11.3407 29.6316 11.3407 29.7341 11.3616C32.4308 11.929 34.7751 13.2013 36.8319 15.0116C36.9267 15.0914 36.9267 15.0914 37.0235 15.1728C37.4102 15.4995 37.7379 15.8543 38.0623 16.2421C38.1561 16.3497 38.1561 16.3497 38.2517 16.4594C39.574 17.9982 40.5244 19.7402 41.1795 21.6562C41.2104 21.7447 41.2104 21.7447 41.242 21.8351C42.0704 24.2479 42.2363 27.1195 41.6717 29.6132C41.6554 29.6871 41.6391 29.7609 41.6223 29.837C40.7066 33.8839 38.3466 37.3464 34.8631 39.621C34.4361 39.8866 33.9964 40.1269 33.5506 40.3593C33.4962 40.3878 33.4418 40.4164 33.3857 40.4458C31.5449 41.3977 29.4076 42.0052 27.3275 42.0166C27.2593 42.0171 27.1911 42.0175 27.1208 42.018C26.9768 42.0188 26.8328 42.0193 26.6887 42.0196C26.474 42.0204 26.2593 42.023 26.0446 42.0256C24.813 42.0333 23.6092 41.8947 22.42 41.5641C22.3562 41.5468 22.2924 41.5294 22.2267 41.5115C20.6888 41.0809 19.2119 40.4251 17.8827 39.539C17.8365 39.5083 17.7903 39.4777 17.7427 39.4461C17.0406 38.976 16.4099 38.4548 15.804 37.8663C15.6639 37.7305 15.5222 37.5966 15.3804 37.4626C12.5871 34.7866 11.0159 30.9274 10.8917 27.0831C10.8023 22.6749 12.4043 18.7098 15.4421 15.538C18.3134 12.6044 22.3228 11.057 26.3985 11.0536ZM27.1522 12.6327C27.1522 14.8796 27.1522 17.1264 27.1522 19.4413C28.2266 19.3834 28.2266 19.3834 29.2747 19.2209C29.3424 19.207 29.41 19.1931 29.4797 19.1788C30.3407 18.9927 31.1777 18.7096 31.992 18.3749C31.9498 17.8641 31.7247 17.4401 31.505 16.9855C31.4644 16.9016 31.4239 16.8176 31.3821 16.7312C30.5856 15.1153 29.403 13.3757 27.6444 12.7148C27.4007 12.6742 27.4007 12.6742 27.1522 12.6327ZM23.5614 13.836C23.5011 13.8991 23.4409 13.9622 23.3788 14.0273C23.2858 14.1207 23.2858 14.1207 23.191 14.216C22.3333 15.1164 21.7731 16.1944 21.2459 17.3085C21.2084 17.3862 21.1709 17.464 21.1322 17.544C20.9852 17.8581 20.9178 18.0183 20.9178 18.3749C22.46 18.9451 24.0146 19.4413 25.6756 19.4413C25.6756 17.1945 25.6756 14.9477 25.6756 12.6327C24.9647 12.6327 24.038 13.3681 23.5614 13.836ZM17.6366 15.6679C17.5276 15.7505 17.4184 15.8328 17.3084 15.914C17.4342 16.2516 17.675 16.428 17.9544 16.6369C18.0012 16.6725 18.0481 16.708 18.0963 16.7447C18.5495 17.0825 19.0267 17.3664 19.5233 17.6366C19.5621 17.5394 19.6009 17.4421 19.6409 17.3418C20.1314 16.1325 20.6859 15.0175 21.4965 13.9904C21.6486 13.791 21.7776 13.5884 21.9022 13.371C20.4491 13.371 18.7161 14.7963 17.6366 15.6679ZM31.0077 13.371C31.1647 13.6441 31.337 13.8981 31.5254 14.1505C32.3224 15.2245 32.9308 16.3805 33.3866 17.6366C33.9605 17.3286 34.4885 16.9908 35.0016 16.5907C35.0517 16.5521 35.1019 16.5134 35.1536 16.4735C35.4443 16.2439 35.4443 16.2439 35.6014 15.914C33.5168 14.1733 33.5168 14.1733 31.0077 13.371ZM16.16 17.0624C13.9525 19.3299 12.4686 22.6549 12.4686 25.8398C14.2823 25.8398 16.096 25.8398 17.9647 25.8398C18.0481 25.5895 18.064 25.3983 18.0762 25.1358C18.1868 23.0605 18.5089 21.0443 19.0311 19.0312C18.9253 18.9744 18.9253 18.9744 18.8174 18.9165C18.0956 18.5211 17.4582 18.0675 16.8163 17.5546C16.5985 17.3891 16.3793 17.2258 16.16 17.0624ZM36.3605 17.3334C35.6902 17.9291 34.9547 18.3936 34.1876 18.8545C34.0308 18.9499 34.0308 18.9499 33.8788 19.1132C33.8971 19.2953 33.8971 19.2953 33.9589 19.5029C33.9799 19.5838 34.001 19.6648 34.0227 19.7482C34.0463 19.8364 34.0698 19.9246 34.0941 20.0155C34.5808 21.9497 34.7335 23.8312 34.8631 25.8398C36.7039 25.8398 38.5447 25.8398 40.4413 25.8398C40.3327 24.5689 40.3327 24.5689 40.0977 23.3327C40.0712 23.2266 40.0712 23.2266 40.0441 23.1183C39.476 20.9305 38.4 18.6493 36.7498 17.0624C36.5836 17.0624 36.4784 17.2278 36.3605 17.3334ZM20.3436 19.7695C20.0394 21.0203 19.7598 22.264 19.6053 23.5429C19.5973 23.6011 19.5894 23.6592 19.5812 23.7191C19.4937 24.4344 19.5233 25.1025 19.5233 25.8398C21.5536 25.8398 23.5838 25.8398 25.6756 25.8398C25.6756 24.2155 25.6756 22.5913 25.6756 20.9179C24.7011 20.7961 24.7011 20.7961 23.7069 20.6718C22.7815 20.4761 21.9018 20.2573 21.0194 19.9236C20.781 19.8335 20.6011 19.7695 20.3436 19.7695ZM31.9312 19.9015C31.1315 20.1814 30.3375 20.4546 29.5055 20.6205C29.4193 20.6381 29.4193 20.6381 29.3313 20.656C28.6103 20.7895 27.8826 20.841 27.1522 20.9179C27.1522 22.5421 27.1522 24.1663 27.1522 25.8398C29.2095 25.8398 31.2669 25.8398 33.3866 25.8398C33.3889 24.6964 33.3889 24.6964 33.2943 23.5685C33.2839 23.484 33.2735 23.3995 33.2627 23.3124C33.0721 21.4782 33.0721 21.4782 32.4842 19.7695C32.2764 19.7695 32.1272 19.8315 31.9312 19.9015ZM12.4686 27.3163C12.7014 30.575 13.8572 33.6448 16.16 36.0116C16.1993 35.9818 16.2387 35.952 16.2792 35.9213C16.684 35.6159 17.0938 35.319 17.5084 35.0273C17.569 34.9845 17.6297 34.9418 17.6921 34.8977C18.1068 34.6062 18.5239 34.319 18.9491 34.0429C18.8938 33.5194 18.7896 33.0175 18.6722 32.5048C18.3599 31.0918 18.1845 29.7015 18.0997 28.2572C18.0909 28.1097 18.0909 28.1097 18.082 27.9591C18.0771 27.8708 18.0722 27.7824 18.0672 27.6914C18.0596 27.4816 18.0596 27.4816 17.9647 27.3163C16.151 27.3163 14.3373 27.3163 12.4686 27.3163ZM19.5233 27.3163C19.5181 28.495 19.5181 28.495 19.6207 29.6542C19.6366 29.7762 19.6366 29.7762 19.6529 29.9006C19.8096 31.0423 20.0076 32.2006 20.3436 33.3046C20.68 33.2607 20.9814 33.1772 21.2998 33.0612C21.9719 32.8173 22.647 32.6444 23.348 32.5048C23.429 32.4885 23.5099 32.4723 23.5934 32.4555C24.2869 32.3228 24.971 32.2443 25.6756 32.1562C25.6756 30.559 25.6756 28.9619 25.6756 27.3163C23.6454 27.3163 21.6151 27.3163 19.5233 27.3163ZM27.1522 27.3163C27.1522 28.9135 27.1522 30.5106 27.1522 32.1562C27.9372 32.2645 28.7223 32.3727 29.5311 32.4843C30.4256 32.6968 31.2745 32.9121 32.1287 33.2415C32.3255 33.3175 32.3255 33.3175 32.5663 33.3046C32.864 32.0257 33.1433 30.7531 33.3045 29.4491C33.3207 29.3215 33.3207 29.3215 33.3372 29.1912C33.4054 28.5615 33.3866 27.9572 33.3866 27.3163C31.3292 27.3163 29.2719 27.3163 27.1522 27.3163ZM34.8631 27.3163C34.809 28.1284 34.7548 28.9405 34.6991 29.7773C34.5078 31.2252 34.2283 32.6267 33.8788 34.0429C33.9611 34.0926 34.0435 34.1423 34.1284 34.1935C34.7894 34.5969 35.4169 35.018 36.0225 35.5009C36.2588 35.6844 36.4991 35.8487 36.7498 36.0116C38.921 33.7815 40.4413 30.4576 40.4413 27.3163C38.6005 27.3163 36.7597 27.3163 34.8631 27.3163ZM27.1522 33.6327C27.1522 35.8796 27.1522 38.1264 27.1522 40.4413C28.6828 40.1012 29.8005 38.9767 30.6436 37.683C31.0045 37.1142 31.3071 36.5176 31.5955 35.9094C31.6559 35.7823 31.7181 35.6561 31.7805 35.53C31.8114 35.4656 31.8423 35.4012 31.8741 35.3349C31.8996 35.282 31.9251 35.2291 31.9513 35.1747C32.0082 34.9688 32.014 34.8896 31.91 34.6991C31.6987 34.5988 31.5058 34.5235 31.2845 34.453C31.2213 34.4321 31.1581 34.4111 31.093 34.3895C30.901 34.3268 30.7084 34.2665 30.5155 34.207C30.4146 34.1753 30.3137 34.1437 30.2098 34.1111C29.2286 33.8272 28.1752 33.6327 27.1522 33.6327ZM20.9998 34.6991C20.9273 34.8827 20.908 34.9898 20.9583 35.1818C20.9821 35.2347 21.0058 35.2875 21.0303 35.3419C21.0568 35.4016 21.0833 35.4613 21.1105 35.5228C21.14 35.586 21.1694 35.6492 21.1998 35.7143C21.2298 35.7799 21.2599 35.8455 21.2908 35.9131C22.1489 37.7571 23.3248 39.5272 25.2373 40.3737C25.4343 40.4549 25.4343 40.4549 25.6756 40.4413C25.6756 38.1945 25.6756 35.9477 25.6756 33.6327C24.2202 33.6327 22.2785 33.9632 20.9998 34.6991ZM18.785 35.8886C18.7301 35.9254 18.6751 35.9623 18.6185 36.0002C18.1623 36.3097 17.7302 36.6407 17.3084 36.996C17.4748 37.3731 17.7216 37.5455 18.0467 37.7856C18.1048 37.8286 18.1628 37.8717 18.2226 37.916C19.2761 38.6795 20.676 39.5832 21.9842 39.7851C21.8878 39.6607 21.8878 39.6607 21.7894 39.5339C20.8754 38.3066 20.0245 36.9745 19.5233 35.5195C19.2369 35.5195 19.0161 35.7324 18.785 35.8886ZM33.3866 35.5195C33.3595 35.583 33.3595 35.583 33.3318 35.6479C32.6923 37.1368 31.9648 38.4565 30.9256 39.703C30.9798 39.7301 31.0339 39.7572 31.0897 39.7851C31.3054 39.7117 31.5109 39.6328 31.7203 39.5441C31.8142 39.5046 31.8142 39.5046 31.91 39.4642C33.2633 38.8837 34.4802 38.1168 35.6014 37.1601C35.4939 36.9133 35.3934 36.7739 35.1752 36.6169C35.0977 36.5605 35.0977 36.5605 35.0186 36.503C34.9639 36.4643 34.9092 36.4257 34.8529 36.3859C34.7974 36.3461 34.7419 36.3062 34.6847 36.2652C34.0792 35.7657 34.0792 35.7657 33.3866 35.5195Z" fill="#26A2E9"/>
<path d="M16.6831 -0.0460663C16.7819 -0.0478639 16.8806 -0.0496616 16.9824 -0.0515137C17.8583 0.0366206 18.4465 0.67086 19.0261 1.27156C19.1032 1.3493 19.1804 1.42695 19.2576 1.50452C20.1056 2.36779 20.1056 2.36779 20.1694 2.8968C20.1777 2.95401 20.1859 3.01122 20.1944 3.07016C20.1519 3.6799 19.8595 4.07192 19.4413 4.48197C19.3913 4.5326 19.3413 4.58324 19.2898 4.63541C19.123 4.80382 18.9548 4.97075 18.7865 5.1377C18.6663 5.25854 18.5461 5.37947 18.4259 5.50048C18.1001 5.82818 17.773 6.15457 17.4456 6.48069C17.1028 6.82241 16.7611 7.16514 16.4191 7.5077C15.8448 8.08277 15.2696 8.65697 14.6939 9.23069C14.0288 9.89366 13.365 10.5581 12.7021 11.2233C12.1325 11.7948 11.5621 12.3654 10.991 12.9354C10.6501 13.2757 10.3095 13.6163 9.96955 13.9575C9.64991 14.2783 9.32928 14.5982 9.00787 14.9172C8.89019 15.0343 8.77286 15.1518 8.6559 15.2697C8.49597 15.4307 8.33482 15.5905 8.1733 15.75C8.1275 15.7967 8.08171 15.8434 8.03452 15.8915C7.66914 16.248 7.28565 16.4619 6.76437 16.506C6.67967 16.4947 6.67967 16.4947 6.59326 16.4832C6.53637 16.4772 6.47948 16.4712 6.42087 16.465C5.9104 16.3045 5.54246 15.9018 5.17556 15.5315C5.12121 15.4773 5.06687 15.4231 5.01087 15.3673C4.83244 15.1892 4.65461 15.0104 4.47679 14.8317C4.35266 14.7075 4.2285 14.5833 4.1043 14.4591C3.84472 14.1994 3.58542 13.9394 3.32633 13.6792C2.99371 13.3452 2.66054 13.0117 2.32719 12.6784C2.07109 12.4223 1.8152 12.166 1.55938 11.9096C1.43655 11.7865 1.31367 11.6634 1.19074 11.5404C1.01949 11.369 0.848515 11.1973 0.677619 11.0255C0.626528 10.9745 0.575436 10.9234 0.522797 10.8708C0.0993384 10.4442 0.0993384 10.4442 0.0410156 10.0797C0.101004 9.61476 0.331068 9.42867 0.65625 9.10555C0.750446 9.00855 0.844539 8.91145 0.938553 8.81427C1.04087 8.70958 1.1433 8.60502 1.24585 8.50056C1.32042 8.42434 1.32042 8.42434 1.39649 8.34658C1.44438 8.29863 1.49227 8.25068 1.54161 8.20128C1.58435 8.1582 1.62709 8.11512 1.67113 8.07074C1.91348 7.86454 2.07712 7.79284 2.39749 7.79401C2.80322 7.90027 3.06511 8.09867 3.39404 8.35188C3.52377 8.44851 3.65355 8.54506 3.78337 8.64156C3.84924 8.69104 3.9151 8.74053 3.98296 8.79152C4.30483 9.0321 4.63071 9.26685 4.95776 9.50032C5.01644 9.54307 5.07511 9.58583 5.13556 9.62988C5.19014 9.66886 5.24472 9.70785 5.30095 9.74802C5.34869 9.78247 5.39642 9.81692 5.44561 9.85242C5.58875 9.94574 5.58875 9.94574 5.82422 9.92586C5.99677 9.77686 6.15535 9.62718 6.3148 9.46507C6.3618 9.41812 6.40879 9.37117 6.4572 9.3228C6.55644 9.22337 6.65537 9.12364 6.75402 9.02363C6.90554 8.87017 7.05813 8.71784 7.2109 8.56561C7.30704 8.46901 7.40312 8.37235 7.49913 8.27562C7.54501 8.22981 7.59089 8.18401 7.63816 8.13681C7.8797 7.92238 7.8797 7.92238 7.95703 7.62898C7.82549 7.51836 7.82549 7.51836 7.65044 7.4089C7.5832 7.36473 7.51597 7.32056 7.4467 7.27505C7.33561 7.20328 7.33561 7.20328 7.22227 7.13007C7.14586 7.08002 7.06944 7.02998 6.99071 6.97843C6.74407 6.81705 6.49694 6.65646 6.24976 6.49593C5.61482 6.08202 4.98066 5.66694 4.34766 5.25008C4.27123 5.19989 4.19481 5.1497 4.11607 5.09799C3.89835 4.95449 3.68149 4.80978 3.46486 4.66464C3.39993 4.62203 3.335 4.57942 3.2681 4.53551C2.67174 4.13237 2.67174 4.13237 2.54297 3.77351C2.54503 3.16567 2.86522 2.88644 3.26683 2.47816C3.3097 2.43583 3.35256 2.3935 3.39673 2.34988C3.52693 2.22046 3.65351 2.0881 3.78017 1.95521C3.86317 1.87164 3.94637 1.78827 4.02979 1.70511C4.10444 1.62972 4.17909 1.55433 4.25601 1.47666C4.60581 1.2522 4.8453 1.24831 5.25 1.31258C5.58655 1.39772 5.91039 1.51024 6.23694 1.62756C6.37829 1.67683 6.37829 1.67683 6.5225 1.72709C6.82333 1.83224 7.12357 1.93896 7.42383 2.04573C7.62043 2.11467 7.81707 2.18351 8.01375 2.25225C8.79483 2.52604 9.57537 2.80059 10.3507 3.09039C10.4913 3.1425 10.4913 3.1425 10.6348 3.19566C10.8123 3.26161 10.9894 3.32839 11.1662 3.39614C11.2454 3.42546 11.3245 3.45478 11.406 3.48498C11.5094 3.52414 11.5094 3.52414 11.6148 3.56409C11.8538 3.61893 11.9904 3.60558 12.2227 3.52742C12.3955 3.39951 12.3955 3.39951 12.5525 3.22964C12.6144 3.16665 12.6763 3.10367 12.7401 3.03877C12.8059 2.97024 12.8717 2.90172 12.9395 2.83112C13.0083 2.761 13.0772 2.69088 13.1482 2.61864C13.4427 2.31874 13.7353 2.01696 14.028 1.7153C14.2421 1.49525 14.4572 1.27621 14.6724 1.05719C14.7377 0.989162 14.803 0.921134 14.8703 0.851044C15.4094 0.302556 15.8818 -0.0469206 16.6831 -0.0460663ZM15.9564 1.85858C15.9149 1.89967 15.8734 1.94076 15.8307 1.98309C15.6924 2.12082 15.5563 2.26049 15.4201 2.40025C15.3212 2.49952 15.2223 2.59865 15.1232 2.69767C14.8546 2.96675 14.5879 3.23755 14.3214 3.50867C14.0423 3.79202 13.7614 4.07368 13.4807 4.3555C12.9492 4.88962 12.4191 5.42513 11.8896 5.9612C10.941 6.92142 9.98983 7.8791 9.03843 8.83655C8.70452 9.17268 8.37117 9.50936 8.03828 9.8465C7.83129 10.056 7.62397 10.2652 7.41659 10.4744C7.32041 10.5715 7.22438 10.6688 7.1285 10.7662C6.99772 10.8991 6.86645 11.0315 6.73505 11.1637C6.66169 11.238 6.58834 11.3122 6.51275 11.3887C6.23898 11.6366 6.09181 11.732 5.72072 11.7267C5.3348 11.6283 5.08805 11.4547 4.77319 11.2178C4.68418 11.1533 4.68418 11.1533 4.59337 11.0874C4.33267 10.8978 4.07432 10.7052 3.81638 10.5119C3.6814 10.4108 3.54616 10.3101 3.41065 10.2097C3.28172 10.1141 3.1535 10.0175 3.02608 9.91985C2.96764 9.87647 2.9092 9.83309 2.84898 9.78839C2.79772 9.74955 2.74645 9.71071 2.69363 9.67069C2.54645 9.58532 2.54645 9.58532 2.38029 9.6012C2.15483 9.69348 2.15483 9.69348 1.88672 10.0899C3.48387 11.6871 5.08102 13.2842 6.72656 14.9298C7.09928 14.6103 7.45504 14.2951 7.7996 13.9486C7.84631 13.902 7.89303 13.8553 7.94117 13.8073C8.09602 13.6525 8.25058 13.4975 8.40514 13.3425C8.51674 13.2309 8.62835 13.1193 8.73998 13.0077C9.04181 12.7059 9.34338 12.4039 9.6449 12.1018C9.9605 11.7857 10.2763 11.4698 10.5921 11.1539C11.1896 10.5562 11.7868 9.95826 12.384 9.36026C13.0641 8.67925 13.7444 7.99847 14.4248 7.31772C15.8238 5.91782 17.2225 4.51764 18.6211 3.11726C18.5445 3.02707 18.4678 2.93698 18.3911 2.84694C18.3271 2.77167 18.3271 2.77167 18.2617 2.69488C18.0563 2.46006 17.8376 2.23978 17.6162 2.0201C17.5729 1.97642 17.5295 1.93275 17.4848 1.88776C17.1541 1.55536 17.1541 1.55536 16.7112 1.44764C16.3278 1.4841 16.2247 1.58753 15.9564 1.85858ZM5.08594 2.87117C4.89645 3.06066 4.70695 3.25015 4.51172 3.44539C4.72635 3.67048 4.93915 3.85261 5.19931 4.02263C5.2697 4.06891 5.34008 4.11519 5.4126 4.16287C5.48805 4.21193 5.56351 4.26098 5.64125 4.31152C5.71954 4.36289 5.79783 4.41425 5.87849 4.46718C6.12847 4.6311 6.37879 4.79449 6.62915 4.95784C6.87857 5.12099 7.12791 5.28425 7.37718 5.44763C7.53211 5.54913 7.68713 5.65048 7.84227 5.75167C7.91343 5.7982 7.98459 5.84474 8.05791 5.89269C8.1586 5.95835 8.1586 5.95835 8.26132 6.02535C8.43572 6.14329 8.60131 6.2684 8.76795 6.39693C8.99697 6.58452 8.99697 6.58452 9.19267 6.5408C9.41483 6.45655 9.53937 6.32322 9.7066 6.1553C9.77217 6.08969 9.83773 6.02408 9.90527 5.95647C9.97295 5.88748 10.0406 5.81848 10.1104 5.74739C10.1793 5.67871 10.2482 5.61003 10.3193 5.53927C10.6754 5.23852 10.6754 5.23852 10.8281 4.83992C10.2248 4.63161 9.62147 4.42337 9.0181 4.21519C8.73784 4.11849 8.45757 4.02176 8.17733 3.925C7.90608 3.83134 7.63482 3.73774 7.36354 3.64416C7.21143 3.59168 7.05934 3.53915 6.90724 3.48661C6.30137 3.27768 5.69437 3.07252 5.08594 2.87117Z" fill="#26A2E9"/>
<path d="M8.93628 34.771C9.14349 34.884 9.26499 35.0369 9.4086 35.2215C9.56633 35.4189 9.74468 35.5897 9.92578 35.7656C9.59477 36.1603 9.26587 36.5148 8.85938 36.832C8.7272 36.7182 8.59575 36.6035 8.4646 36.4885C8.39132 36.4248 8.31804 36.361 8.24254 36.2953C8.04783 36.1024 7.92156 35.9241 7.79297 35.6836C7.83654 35.6459 7.8801 35.6083 7.92499 35.5695C8.01191 35.494 8.01191 35.494 8.10059 35.417C8.16065 35.365 8.22071 35.3129 8.28259 35.2593C8.4584 35.1064 8.4584 35.1064 8.63379 34.9043C8.77734 34.7812 8.77734 34.7812 8.93628 34.771Z" fill="#26A2E9"/>
<path d="M10.8281 36.5859C11.1027 36.713 11.3405 36.8723 11.5869 37.0474C11.6601 37.0992 11.7333 37.151 11.8087 37.2044C11.8918 37.2637 11.8918 37.2637 11.9766 37.3242C11.9335 37.698 11.7867 37.9143 11.5613 38.2112C11.471 38.3313 11.471 38.3313 11.379 38.4538C11.3325 38.5141 11.2861 38.5745 11.2383 38.6367C10.9019 38.5215 10.6656 38.3602 10.3923 38.1343C10.3199 38.0748 10.2475 38.0154 10.1728 37.9542C10.1184 37.9087 10.0639 37.8633 10.0078 37.8164C10.0527 37.4733 10.2456 37.2751 10.4641 37.0166C10.5658 36.8954 10.5658 36.8954 10.6695 36.7718C10.7219 36.7105 10.7742 36.6491 10.8281 36.5859Z" fill="#26A2E9"/>
<path d="M5.90625 30.3516C6.00259 30.5238 6.09817 30.6965 6.19336 30.8694C6.22075 30.9182 6.24813 30.967 6.27635 31.0173C6.40404 31.2505 6.48047 31.3939 6.48047 31.6641C6.29272 31.7739 6.10471 31.8832 5.9165 31.9922C5.8631 32.0235 5.8097 32.0548 5.75468 32.087C5.35062 32.3203 5.35062 32.3203 5.16797 32.3203C5.05818 32.1189 4.94887 31.9172 4.83984 31.7153C4.80854 31.658 4.77724 31.6007 4.745 31.5417C4.51172 31.1084 4.51172 31.1084 4.51172 30.9258C4.69771 30.8295 4.884 30.7339 5.07056 30.6387C5.14963 30.5976 5.14963 30.5976 5.23029 30.5557C5.47111 30.4334 5.63237 30.3516 5.90625 30.3516Z" fill="#26A2E9"/>
<path d="M33.1406 5.98828C33.4812 6.10657 33.7394 6.27548 34.0276 6.49072C34.1076 6.55015 34.1877 6.60958 34.2702 6.67081C34.3305 6.71628 34.3909 6.76175 34.4531 6.80859C34.3196 7.11681 34.1238 7.35138 33.9097 7.6084C33.8426 7.68919 33.7756 7.76997 33.7065 7.85321C33.6551 7.91454 33.6037 7.97587 33.5508 8.03906C33.4053 7.94889 33.2601 7.85822 33.115 7.76733C33.0341 7.71689 32.9532 7.66645 32.8699 7.61449C32.6893 7.49247 32.5473 7.3795 32.4023 7.21875C32.5162 6.89964 32.6661 6.64735 32.8638 6.3728C32.9156 6.30037 32.9674 6.22793 33.0208 6.15331C33.0603 6.09885 33.0999 6.04439 33.1406 5.98828Z" fill="#26A2E9"/>
<path d="M13.043 38.1445C13.3828 38.1936 13.6321 38.3091 13.9299 38.4778C14.01 38.5227 14.09 38.5677 14.1725 38.614C14.2329 38.6485 14.2933 38.6831 14.3555 38.7188C14.2111 39.2043 13.9948 39.6552 13.7812 40.1133C13.2756 39.9766 12.8393 39.7131 12.3867 39.457C12.442 39.1362 12.5953 38.8934 12.761 38.6162C12.8135 38.5278 12.8661 38.4394 12.9202 38.3483C12.9607 38.2811 13.0012 38.2138 13.043 38.1445Z" fill="#26A2E9"/>
<path d="M7.13672 32.6484C7.38662 32.8836 7.61089 33.1274 7.82373 33.397C7.86666 33.4513 7.90959 33.5057 7.95383 33.5617C7.98195 33.6122 8.01008 33.6628 8.03906 33.7148C7.9324 34.0348 7.73211 34.1546 7.46997 34.3455C7.42477 34.3796 7.37956 34.4137 7.33298 34.4488C6.99457 34.6992 6.99457 34.6992 6.80859 34.6992C6.66169 34.5104 6.52373 34.3217 6.38818 34.125C6.3498 34.0702 6.31141 34.0154 6.27187 33.959C6.17685 33.8233 6.0825 33.6871 5.98828 33.5508C6.24071 33.2876 6.48632 33.0659 6.79321 32.8689C6.85803 32.8269 6.92285 32.7849 6.98964 32.7417C7.03818 32.7109 7.08671 32.6801 7.13672 32.6484Z" fill="#26A2E9"/>
<path d="M37.4062 9.92578C37.7414 10.0511 37.8819 10.263 38.083 10.5513C38.141 10.6335 38.1989 10.7158 38.2586 10.8006C38.324 10.8954 38.324 10.8954 38.3906 10.9922C38.2656 11.3436 38.0307 11.4733 37.7241 11.6689C37.6342 11.7269 37.5444 11.7848 37.4518 11.8445C37.348 11.9099 37.348 11.9099 37.2422 11.9766C36.9947 11.7422 36.7988 11.4989 36.6064 11.2178C36.5561 11.1446 36.5058 11.0714 36.4539 10.996C36.4163 10.9406 36.3786 10.8852 36.3398 10.8281C36.6655 10.4821 37.0214 10.2037 37.4062 9.92578Z" fill="#26A2E9"/>
<path d="M4.92188 27.8906C5.00752 28.0814 5.07748 28.262 5.14233 28.4597C5.16079 28.5127 5.17924 28.5657 5.19825 28.6204C5.33203 29.0119 5.33203 29.0119 5.33203 29.2031C5.13244 29.2878 4.93249 29.3713 4.73218 29.4543C4.67555 29.4785 4.61893 29.5026 4.56059 29.5275C4.12944 29.7045 4.12944 29.7045 3.85547 29.6132C3.76959 29.424 3.69982 29.2454 3.63501 29.0493C3.61656 28.9969 3.59811 28.9446 3.57909 28.8906C3.4986 28.6563 3.44531 28.4682 3.44531 28.2187C3.64498 28.1477 3.84492 28.0778 4.04517 28.0085C4.10179 27.9882 4.15842 27.968 4.21676 27.9471C4.6479 27.7992 4.6479 27.7992 4.92188 27.8906Z" fill="#26A2E9"/>
<path d="M39.293 12.3867C39.4426 12.6194 39.4426 12.6194 39.5955 12.9097C39.6465 13.0051 39.6976 13.1004 39.7502 13.1987C39.8672 13.4531 39.8672 13.4531 39.8672 13.6992C39.6814 13.7977 39.4951 13.8949 39.3083 13.9915C39.2293 14.0336 39.2293 14.0336 39.1486 14.0765C39.0084 14.1485 38.8637 14.2115 38.7188 14.2734C38.3877 14.1631 38.3205 13.9568 38.1702 13.6633C38.1439 13.6142 38.1176 13.5651 38.0905 13.5145C37.8984 13.1487 37.8984 13.1487 37.8984 12.9609C38.0842 12.8488 38.2705 12.738 38.4573 12.6277C38.51 12.5957 38.5627 12.5637 38.617 12.5308C39.019 12.2954 39.019 12.2954 39.293 12.3867Z" fill="#26A2E9"/>
<path d="M35.4375 7.79297C35.7577 7.92313 35.9572 8.13205 36.1963 8.37744C36.2695 8.4521 36.3426 8.52675 36.418 8.60367C36.4734 8.66098 36.5288 8.71829 36.5859 8.77734C36.4692 9.05062 36.3289 9.21019 36.104 9.40283C36.0484 9.45126 35.9928 9.49969 35.9355 9.54959C35.7656 9.67969 35.7656 9.67969 35.4375 9.84375C35.1397 9.54598 34.842 9.2482 34.5352 8.94141C34.673 8.66568 34.7854 8.49883 34.9863 8.2749C35.0362 8.21886 35.0861 8.16281 35.1376 8.10507C35.2351 7.99877 35.3355 7.89499 35.4375 7.79297Z" fill="#26A2E9"/>
<path d="M30.6797 4.51172C31.1128 4.72828 31.5459 4.94484 31.9922 5.16797C31.9141 5.55827 31.8316 5.73245 31.6179 6.05493C31.5654 6.13498 31.5128 6.21503 31.4587 6.2975C31.4182 6.35788 31.3777 6.41826 31.3359 6.48047C31.028 6.42143 30.7731 6.28924 30.4951 6.14722C30.4067 6.10228 30.3183 6.05733 30.2272 6.01103C30.16 5.97645 30.0927 5.94188 30.0234 5.90625C30.1786 5.39843 30.4204 4.97389 30.6797 4.51172Z" fill="#26A2E9"/>
<path d="M16.1602 2.54297C16.5342 2.85508 16.8862 3.17869 17.2266 3.52734C17.1009 3.82135 16.9257 4.02187 16.7036 4.25024C16.6404 4.31676 16.5771 4.38327 16.512 4.4518C16.3242 4.59375 16.3242 4.59375 16.1634 4.60016C15.9199 4.47144 15.7558 4.29436 15.5654 4.09644C15.4923 4.02104 15.4191 3.94565 15.3437 3.86797C15.2883 3.8097 15.2329 3.75144 15.1758 3.69141C15.3059 3.37125 15.5149 3.17172 15.7603 2.93262C15.8349 2.85944 15.9096 2.78627 15.9865 2.71088C16.0438 2.65547 16.1011 2.60006 16.1602 2.54297Z" fill="#26A2E9"/>
<path d="M15.5039 39.293C16.449 39.5452 16.449 39.5452 16.8984 39.7031C16.7647 40.1962 16.6301 40.6889 16.4883 41.1797C15.9769 41.0493 15.4905 40.911 15.0117 40.6875C15.0655 40.3546 15.1713 40.069 15.304 39.7595C15.3599 39.628 15.3599 39.628 15.4171 39.4939C15.4601 39.3944 15.4601 39.3944 15.5039 39.293Z" fill="#26A2E9"/>
<path d="M2.54316 22.4766C3.03042 22.4766 3.51769 22.4766 4.01972 22.4766C4.04679 22.9638 4.07386 23.4511 4.10175 23.9531C3.61449 23.9802 3.12722 24.0073 2.62519 24.0352C2.52224 23.7263 2.53441 23.4386 2.53803 23.1174C2.53972 22.9059 2.54141 22.6945 2.54316 22.4766Z" fill="#26A2E9"/>
<path d="M27.9727 3.44531C28.1744 3.51181 28.376 3.57849 28.5776 3.64526C28.6349 3.66414 28.6923 3.68301 28.7513 3.70246C29.1845 3.84618 29.1845 3.84618 29.3672 3.9375C29.3195 4.39075 29.1905 4.85637 28.957 5.25C28.8164 5.32755 28.8164 5.32755 28.6289 5.33203C28.3636 5.25032 28.3636 5.25032 28.0752 5.13208C27.9792 5.09327 27.8832 5.05446 27.7842 5.01448C27.7111 4.98392 27.6379 4.95336 27.5625 4.92188C27.6925 3.72542 27.6925 3.72542 27.9727 3.44531Z" fill="#26A2E9"/>
<path d="M4.26562 25.1836C4.30925 25.368 4.35176 25.5526 4.3938 25.7373C4.41759 25.8401 4.44138 25.9429 4.4659 26.0488C4.50634 26.2988 4.51801 26.4285 4.42969 26.6602C4.2589 26.7016 4.08797 26.7425 3.91699 26.7832C3.82182 26.806 3.72665 26.8289 3.6286 26.8524C3.36328 26.9062 3.36328 26.9062 3.03516 26.9062C2.99372 26.7218 2.95281 26.5372 2.91211 26.3525C2.88927 26.2498 2.86643 26.147 2.8429 26.0411C2.78906 25.7578 2.78906 25.7578 2.78906 25.4297C3.28339 25.3018 3.75186 25.1836 4.26562 25.1836Z" fill="#26A2E9"/>
<path d="M40.5233 14.9297C40.6078 15.1447 40.6914 15.3601 40.7745 15.5757C40.7986 15.6369 40.8228 15.6981 40.8477 15.7612C40.9084 15.9198 40.9624 16.0809 41.0154 16.2422C40.9334 16.4062 40.9334 16.4062 40.7037 16.494C40.6086 16.5226 40.5135 16.5512 40.4156 16.5806C40.2739 16.624 40.2739 16.624 40.1294 16.6684C39.867 16.7344 39.867 16.7344 39.5389 16.7344C39.4677 16.5639 39.3979 16.3929 39.3287 16.2217C39.2897 16.1265 39.2506 16.0313 39.2104 15.9333C39.1287 15.668 39.1287 15.668 39.1274 15.4834C39.2602 15.2546 39.4459 15.2089 39.6876 15.1143C39.7744 15.0792 39.8612 15.044 39.9506 15.0079C40.1951 14.9297 40.1951 14.9297 40.5233 14.9297Z" fill="#26A2E9"/>
<path d="M2.70703 19.6055C3.1943 19.6596 3.68156 19.7137 4.18359 19.7695C4.17175 19.9827 4.15991 20.1959 4.14771 20.4155C4.1424 20.5161 4.1424 20.5161 4.13699 20.6186C4.11068 21.0638 4.11068 21.0638 4.01953 21.2461C3.53227 21.219 3.045 21.192 2.54297 21.1641C2.61475 20.0669 2.61475 20.0669 2.70703 19.6055Z" fill="#26A2E9"/>
<path d="M25.1016 2.87109C26.1562 2.94141 26.1562 2.94141 26.5781 3.11719C26.5359 3.5973 26.4589 4.04658 26.332 4.51172C26.1936 4.5022 26.0551 4.49176 25.9167 4.48096C25.8397 4.47525 25.7626 4.46954 25.6832 4.46365C25.4297 4.42969 25.4297 4.42969 24.8555 4.26562C24.9367 3.80543 25.0179 3.34523 25.1016 2.87109Z" fill="#26A2E9"/>
<path d="M22.2305 2.62489C22.4284 2.6232 22.6264 2.62151 22.8303 2.61976C22.8923 2.61902 22.9543 2.61827 23.0182 2.6175C23.2709 2.61645 23.4655 2.62642 23.707 2.70692C23.7093 2.84534 23.7109 2.98377 23.7122 3.12221C23.7131 3.19929 23.7141 3.27638 23.715 3.3558C23.7063 3.63319 23.6642 3.90875 23.625 4.18348C23.1648 4.15641 22.7046 4.12934 22.2305 4.10145C22.2305 3.61419 22.2305 3.12692 22.2305 2.62489Z" fill="#26A2E9"/>
<path d="M3.28125 16.8164C3.76852 16.9518 4.25578 17.0871 4.75781 17.2266C4.64953 17.6597 4.54125 18.0928 4.42969 18.5391C3.69141 18.4468 3.69141 18.4468 3.32227 18.3699C3.25205 18.3554 3.18184 18.3409 3.1095 18.326C3.05789 18.3151 3.00629 18.3042 2.95312 18.293C2.97667 18.1545 3.00069 18.0161 3.0249 17.8777C3.03823 17.8006 3.05155 17.7235 3.06528 17.6441C3.12249 17.3648 3.20292 17.0906 3.28125 16.8164Z" fill="#26A2E9"/>
</g>
<defs>
<clipPath id="clip0_38_2769">
<rect width="42" height="42" fill="white"/>
</clipPath>
</defs>
</svg>
