<svg width="24" height="24" viewBox="0 0 24 24" fill="none" xmlns="http://www.w3.org/2000/svg">
<path fill-rule="evenodd" clip-rule="evenodd" d="M20.4001 5.40001C20.4001 4.2861 19.9576 3.21782 19.1699 2.43016C18.3823 1.64251 17.314 1.20001 16.2001 1.20001H7.8001C6.68619 1.20001 5.6179 1.64251 4.83025 2.43016C4.0426 3.21782 3.6001 4.2861 3.6001 5.40001V13.746C3.59971 14.6433 3.88668 15.5171 4.41899 16.2395C4.9513 16.9618 5.70094 17.4947 6.5581 17.76C8.31943 18.3125 10.1541 18.5957 12.0001 18.6C13.8461 18.5953 15.6808 18.3117 17.4421 17.7588C18.2991 17.4935 19.0486 16.9608 19.5808 16.2387C20.1131 15.5166 20.4002 14.6431 20.4001 13.746V5.40001ZM4.8001 13.746V5.40001C4.8001 4.60436 5.11617 3.8413 5.67878 3.27869C6.24139 2.71608 7.00445 2.40001 7.8001 2.40001H16.2001C16.9957 2.40001 17.7588 2.71608 18.3214 3.27869C18.884 3.8413 19.2001 4.60436 19.2001 5.40001V13.746C19.2004 14.3868 18.9955 15.0108 18.6154 15.5266C18.2354 16.0425 17.7001 16.4231 17.0881 16.6128C15.4415 17.1301 13.7261 17.3955 12.0001 17.4C10.2741 17.3955 8.55873 17.1301 6.9121 16.6128C6.30006 16.4231 5.76483 16.0425 5.38478 15.5266C5.00473 15.0108 4.79983 14.3868 4.8001 13.746Z" fill="#018AD3"/>
<path fill-rule="evenodd" clip-rule="evenodd" d="M7.8 15.6C8.27739 15.6 8.73523 15.4104 9.07279 15.0728C9.41036 14.7352 9.6 14.2774 9.6 13.8C9.6 13.3226 9.41036 12.8648 9.07279 12.5272C8.73523 12.1896 8.27739 12 7.8 12C7.32261 12 6.86477 12.1896 6.52721 12.5272C6.18964 12.8648 6 13.3226 6 13.8C6 14.2774 6.18964 14.7352 6.52721 15.0728C6.86477 15.4104 7.32261 15.6 7.8 15.6ZM7.8 13.2C7.95913 13.2 8.11174 13.2632 8.22426 13.3757C8.33679 13.4883 8.4 13.6409 8.4 13.8C8.4 13.9591 8.33679 14.1117 8.22426 14.2243C8.11174 14.3368 7.95913 14.4 7.8 14.4C7.64087 14.4 7.48826 14.3368 7.37574 14.2243C7.26321 14.1117 7.2 13.9591 7.2 13.8C7.2 13.6409 7.26321 13.4883 7.37574 13.3757C7.48826 13.2632 7.64087 13.2 7.8 13.2ZM16.2 15.6C16.6774 15.6 17.1352 15.4104 17.4728 15.0728C17.8104 14.7352 18 14.2774 18 13.8C18 13.3226 17.8104 12.8648 17.4728 12.5272C17.1352 12.1896 16.6774 12 16.2 12C15.7226 12 15.2648 12.1896 14.9272 12.5272C14.5896 12.8648 14.4 13.3226 14.4 13.8C14.4 14.2774 14.5896 14.7352 14.9272 15.0728C15.2648 15.4104 15.7226 15.6 16.2 15.6ZM16.2 13.2C16.3591 13.2 16.5117 13.2632 16.6243 13.3757C16.7368 13.4883 16.8 13.6409 16.8 13.8C16.8 13.9591 16.7368 14.1117 16.6243 14.2243C16.5117 14.3368 16.3591 14.4 16.2 14.4C16.0409 14.4 15.8883 14.3368 15.7757 14.2243C15.6632 14.1117 15.6 13.9591 15.6 13.8C15.6 13.6409 15.6632 13.4883 15.7757 13.3757C15.8883 13.2632 16.0409 13.2 16.2 13.2Z" fill="#018AD3"/>
<path d="M18.6386 22.4112C18.6974 22.5561 18.8104 22.6724 18.9536 22.7352C19.0968 22.798 19.2589 22.8024 19.4053 22.7475C19.5517 22.6926 19.6709 22.5827 19.7375 22.4412C19.8041 22.2997 19.8128 22.1378 19.7618 21.99L17.9618 17.19C17.9021 17.0468 17.7891 16.9322 17.6466 16.8705C17.5042 16.8088 17.3434 16.8047 17.198 16.8591C17.0526 16.9135 16.9339 17.0221 16.8669 17.1621C16.7999 17.3021 16.7897 17.4627 16.8386 17.61L18.6386 22.41V22.4112ZM6.63863 17.19C6.66404 17.1134 6.70463 17.0428 6.75798 16.9822C6.81133 16.9217 6.87634 16.8726 6.94913 16.8377C7.02191 16.8029 7.10097 16.7831 7.18157 16.7795C7.26218 16.776 7.34268 16.7887 7.41825 16.817C7.49383 16.8452 7.56293 16.8884 7.62142 16.944C7.67991 16.9996 7.72658 17.0664 7.75866 17.1404C7.79073 17.2145 7.80755 17.2942 7.80809 17.3749C7.80864 17.4556 7.7929 17.5356 7.76183 17.61L5.96183 22.41C5.90205 22.5533 5.78907 22.6678 5.64662 22.7295C5.50418 22.7912 5.34336 22.7953 5.19796 22.741C5.05255 22.6866 4.93388 22.578 4.86688 22.4379C4.79987 22.2979 4.78975 22.1374 4.83863 21.99L6.63863 17.19Z" fill="#018AD3"/>
<path fill-rule="evenodd" clip-rule="evenodd" d="M18 6.00001C18 5.36349 17.7471 4.75304 17.2971 4.30295C16.847 3.85286 16.2365 3.60001 15.6 3.60001H8.4C7.76348 3.60001 7.15303 3.85286 6.70294 4.30295C6.25286 4.75304 6 5.36349 6 6.00001V9.07801C6.00004 9.59812 6.16904 10.1041 6.48156 10.5199C6.79408 10.9356 7.23319 11.2386 7.7328 11.3832C9.1536 11.796 10.5768 12 12 12C13.4232 12 14.8464 11.7948 16.2672 11.3832C16.7668 11.2386 17.2059 10.9356 17.5184 10.5199C17.831 10.1041 18 9.59812 18 9.07801V6.00001ZM7.2 9.07801V6.00001C7.2 5.68175 7.32643 5.37652 7.55147 5.15148C7.77652 4.92643 8.08174 4.80001 8.4 4.80001H15.6C15.9183 4.80001 16.2235 4.92643 16.4485 5.15148C16.6736 5.37652 16.8 5.68175 16.8 6.00001V9.07801C16.7998 9.33796 16.7153 9.59083 16.559 9.79859C16.4028 10.0063 16.1833 10.1577 15.9336 10.23C14.6559 10.6049 13.3315 10.7968 12 10.8C10.6908 10.8 9.3792 10.6104 8.0664 10.2312C7.8165 10.1589 7.59687 10.0073 7.4406 9.79931C7.28433 9.59131 7.19989 9.33816 7.2 9.07801Z" fill="#018AD3"/>
<path d="M6.3002 21C6.14107 21 5.98845 20.9368 5.87593 20.8243C5.76341 20.7118 5.7002 20.5591 5.7002 20.4C5.7002 20.2409 5.76341 20.0883 5.87593 19.9758C5.98845 19.8632 6.14107 19.8 6.3002 19.8H18.3002C18.4593 19.8 18.6119 19.8632 18.7245 19.9758C18.837 20.0883 18.9002 20.2409 18.9002 20.4C18.9002 20.5591 18.837 20.7118 18.7245 20.8243C18.6119 20.9368 18.4593 21 18.3002 21H6.3002Z" fill="#018AD3"/>
</svg>
