<svg width="24" height="29" viewBox="0 0 24 29" fill="none" xmlns="http://www.w3.org/2000/svg">
<path d="M21 13.5H3V6H21M18.75 22.5C18.1533 22.5 17.581 22.2629 17.159 21.841C16.7371 21.419 16.5 20.8467 16.5 20.25C16.5 19.6533 16.7371 19.081 17.159 18.659C17.581 18.2371 18.1533 18 18.75 18C19.3467 18 19.919 18.2371 20.341 18.659C20.7629 19.081 21 19.6533 21 20.25C21 20.8467 20.7629 21.419 20.341 21.841C19.919 22.2629 19.3467 22.5 18.75 22.5ZM5.25 22.5C4.65326 22.5 4.08097 22.2629 3.65901 21.841C3.23705 21.419 3 20.8467 3 20.25C3 19.6533 3.23705 19.081 3.65901 18.659C4.08097 18.2371 4.65326 18 5.25 18C5.84674 18 6.41903 18.2371 6.84099 18.659C7.26295 19.081 7.5 19.6533 7.5 20.25C7.5 20.8467 7.26295 21.419 6.84099 21.841C6.41903 22.2629 5.84674 22.5 5.25 22.5ZM0 21C0 22.32 0.585 23.505 1.5 24.33V27C1.5 27.3978 1.65804 27.7794 1.93934 28.0607C2.22064 28.342 2.60218 28.5 3 28.5H4.5C4.89782 28.5 5.27936 28.342 5.56066 28.0607C5.84196 27.7794 6 27.3978 6 27V25.5H18V27C18 27.3978 18.158 27.7794 18.4393 28.0607C18.7206 28.342 19.1022 28.5 19.5 28.5H21C21.3978 28.5 21.7794 28.342 22.0607 28.0607C22.342 27.7794 22.5 27.3978 22.5 27V24.33C23.415 23.505 24 22.32 24 21V6C24 0.75 18.63 0 12 0C5.37 0 0 0.75 0 6V21Z" fill="#018AD3"/>
</svg>
